<?xml version="1.0" standalone="no"?>
<!DOCTYPE svg PUBLIC "-//W3C//DTD SVG 20010904//EN"
 "http://www.w3.org/TR/2001/REC-SVG-20010904/DTD/svg10.dtd">
<svg version="1.0" xmlns="http://www.w3.org/2000/svg"
 width="140.000000pt" height="140.000000pt" viewBox="0 0 140.000000 140.000000"
 preserveAspectRatio="xMidYMid meet">

<g transform="translate(0.000000,140.000000) scale(0.100000,-0.100000)"
fill="#000000" stroke="none">
<path d="M0 700 l0 -700 105 0 105 0 0 68 c0 76 17 193 30 206 13 14 29 -27
40 -106 6 -40 13 -86 16 -103 6 -26 5 -28 -9 -17 -11 9 -17 10 -22 2 -4 -7 2
-14 14 -17 12 -3 21 -12 21 -19 0 -8 7 -14 16 -14 15 0 16 9 11 68 -4 37 -15
100 -25 140 -20 79 -24 72 43 87 79 17 105 27 105 40 0 8 5 15 10 15 6 0 10
-8 10 -18 0 -10 6 -27 14 -38 17 -24 15 -56 -4 -62 -7 -3 -10 0 -6 6 6 10 -23
26 -32 17 -3 -3 0 -5 6 -5 7 0 12 -6 12 -14 0 -13 -65 -43 -82 -38 -5 1 -7 -2
-5 -7 1 -5 -7 -17 -18 -26 -20 -16 -20 -16 5 -12 14 3 34 1 45 -3 19 -8 19 -9
-2 -9 -45 -2 -22 -17 28 -19 48 -2 50 -1 44 20 -4 17 -3 19 3 8 6 -8 7 -33 3
-55 l-7 -40 -31 33 c-35 36 -43 39 -43 16 0 -8 -5 -12 -10 -9 -7 4 -10 -11 -8
-44 3 -43 6 -51 23 -51 12 0 15 3 9 8 -11 7 -27 42 -19 42 2 0 11 -7 19 -16 9
-8 16 -11 16 -5 0 6 5 11 12 11 9 0 9 -3 0 -12 -16 -16 -15 -28 2 -28 8 0 17
10 19 23 l4 22 2 -22 c1 -16 7 -23 22 -23 11 0 17 5 14 10 -3 6 -2 10 4 10 5
0 13 -4 16 -10 3 -5 15 -10 25 -10 14 0 22 11 30 43 6 23 13 48 15 55 6 17
114 17 120 0 2 -7 9 -32 15 -55 6 -26 17 -43 25 -43 8 0 15 1 15 3 0 1 -11 44
-24 95 l-24 93 26 10 c15 5 32 11 38 13 27 10 46 -95 21 -111 -5 -3 -4 -9 3
-13 8 -5 7 -9 -5 -13 -9 -4 -13 -3 -10 3 3 6 2 10 -3 10 -14 0 -24 -61 -12
-75 13 -16 82 -17 92 -2 6 9 8 9 8 0 0 -8 15 -13 41 -13 41 0 41 0 35 33 -6
36 6 68 19 47 4 -7 3 -15 -3 -19 -14 -9 -2 -55 16 -59 28 -5 -3 97 -38 125
-13 11 -11 12 13 13 16 0 26 4 23 9 -3 4 6 6 19 3 29 -5 35 15 8 25 -10 3 -25
12 -33 19 -15 12 -19 14 -40 14 -6 0 -8 11 -6 25 6 31 -11 42 -32 21 -15 -15
-15 -16 1 -16 9 0 17 -5 17 -11 0 -6 -7 -8 -16 -5 -9 3 -18 6 -20 6 -2 0 -4 7
-4 15 0 8 3 15 8 15 6 0 15 17 37 75 7 17 9 18 12 3 3 -11 27 -23 74 -35 61
-15 70 -20 66 -38 -20 -88 -36 -168 -41 -212 l-7 -52 33 1 c18 1 27 3 21 5 -7
3 -13 14 -13 24 0 11 4 18 9 14 6 -3 6 7 0 27 -12 42 -12 41 7 34 15 -6 16 0
11 53 -8 70 6 121 33 121 28 0 43 -61 44 -177 l1 -103 113 0 112 0 0 700 0
700 -215 0 c-137 0 -215 -4 -215 -10 0 -5 -9 -10 -19 -10 -11 0 -23 5 -26 10
-4 6 -98 10 -250 10 -203 0 -246 -2 -259 -15 -19 -19 -37 -19 -30 -1 5 12 -25
15 -190 16 l-196 1 0 -701z m440 650 c0 -5 -4 -10 -9 -10 -6 0 -13 5 -16 10
-3 6 1 10 9 10 9 0 16 -4 16 -10z m206 -109 c31 -19 32 -19 89 0 64 21 136 25
166 9 28 -15 49 -63 49 -112 0 -41 9 -87 24 -135 7 -21 5 -21 -26 -12 -53 15
-154 11 -168 -6 -7 -9 -10 -19 -6 -22 4 -4 50 -7 102 -6 l95 2 41 -37 c39 -35
40 -38 35 -84 -6 -43 -4 -48 14 -48 15 0 19 -5 15 -17 -3 -10 -19 -76 -37
-146 -30 -119 -35 -131 -78 -179 -57 -63 -174 -141 -235 -157 -43 -10 -52 -9
-116 18 -113 48 -194 110 -226 173 -17 32 -76 226 -87 286 -6 27 -4 32 13 32
17 0 19 5 14 43 -6 40 -4 45 30 75 20 18 42 33 49 33 7 1 51 2 99 3 90 1 110
8 89 29 -8 8 -44 12 -102 12 -65 0 -88 3 -85 12 3 7 10 40 16 75 29 161 42
178 134 178 42 0 71 -6 92 -19z m-416 -431 c-17 -11 -31 6 -23 27 5 12 8 12
22 -2 14 -14 14 -17 1 -25z m940 9 c0 -12 4 -18 11 -13 17 10 2 -82 -22 -132
-24 -51 -73 -99 -93 -91 -24 9 -4 51 25 55 35 6 49 21 49 54 0 17 4 27 10 23
19 -12 10 35 -10 52 -11 10 -20 21 -20 26 0 5 9 7 20 4 11 -3 20 -1 20 4 0 5
-4 9 -10 9 -5 0 -10 7 -10 15 0 8 7 15 15 15 8 0 15 -9 15 -21z m-960 -30 c0
-8 4 -8 15 1 8 6 19 9 25 5 8 -5 4 -12 -10 -22 -18 -12 -21 -22 -16 -47 4 -17
8 -38 9 -46 5 -26 17 -40 37 -40 22 0 50 -26 50 -46 0 -25 -38 -15 -66 19 -15
17 -35 50 -45 72 -20 43 -25 115 -9 115 6 0 10 -5 10 -11z m914 -77 c7 -12
-39 -70 -49 -60 -4 4 -2 22 3 40 6 18 14 47 18 63 l7 30 7 -31 c4 -17 10 -36
14 -42z m-824 -54 c0 -17 -20 -7 -36 17 -13 21 -14 29 -3 60 l13 36 13 -53 c7
-29 12 -56 13 -60z m-55 72 c-4 -12 -9 -19 -12 -17 -3 3 -2 15 2 27 4 12 9 19
12 17 3 -3 2 -15 -2 -27z m893 5 c-3 -3 -9 2 -12 12 -6 14 -5 15 5 6 7 -7 10
-15 7 -18z m-731 -391 c2 -6 -27 -18 -69 -27 -63 -14 -75 -14 -87 -2 -16 16
-17 16 49 34 44 12 102 10 107 -5z m693 0 c46 -14 51 -17 38 -30 -13 -13 -23
-13 -84 2 -79 20 -84 22 -64 34 21 14 49 12 110 -6z m-200 -5 c0 -17 -20 -49
-30 -49 -14 0 -12 34 2 48 15 15 28 15 28 1z m-380 -25 c0 -8 -4 -12 -10 -9
-5 3 -10 10 -10 16 0 5 5 9 10 9 6 0 10 -7 10 -16z m43 -17 c4 3 7 -1 7 -10 0
-15 -3 -15 -20 -5 -11 7 -20 17 -20 22 0 4 6 3 13 -3 8 -6 17 -8 20 -4z m283
-2 c-4 -24 -16 -30 -16 -7 0 12 4 22 9 22 5 0 8 -7 7 -15z m-161 -35 c14 0 42
7 62 15 46 20 53 19 53 -5 0 -27 -36 -40 -106 -40 -59 0 -106 22 -97 46 4 11
9 11 33 -1 16 -8 41 -15 55 -15z m-110 -70 c-8 -16 -13 -35 -12 -42 2 -7 2 -9
-1 -5 -2 4 -10 0 -17 -9 -11 -16 -12 -15 -12 9 0 15 3 24 7 22 4 -3 11 2 14
11 3 8 2 12 -4 9 -15 -9 -12 3 7 24 24 28 36 15 18 -19z m-65 10 c0 -5 -2 -10
-4 -10 -3 0 -8 5 -11 10 -3 6 -1 10 4 10 6 0 11 -4 11 -10z m355 0 c-3 -5 -2
-17 3 -26 6 -11 11 -13 16 -5 4 6 19 11 34 11 24 0 25 -1 7 -13 -16 -13 -15
-14 16 -10 32 3 33 3 9 -7 -14 -6 -35 -9 -47 -7 -15 3 -23 -1 -23 -9 0 -8 -5
-14 -11 -14 -6 0 -9 9 -6 20 3 11 1 23 -4 26 -13 7 -11 44 2 44 5 0 7 -4 4
-10z m-365 -37 c0 -12 -3 -13 -14 -4 -15 13 -32 -1 -21 -18 3 -6 -4 -9 -15 -8
-11 1 -20 7 -20 14 0 7 -8 13 -17 14 -14 0 -13 2 5 9 12 5 30 6 39 3 10 -4 14
-2 10 4 -5 7 0 9 13 6 11 -3 20 -12 20 -20z m587 -35 c-3 -8 -6 -5 -6 6 -1 11
2 17 5 13 3 -3 4 -12 1 -19z m-157 -18 c0 -11 -4 -20 -10 -20 -5 0 -10 9 -10
20 0 11 5 20 10 20 6 0 10 -9 10 -20z m-386 -22 c9 -37 7 -43 -9 -22 -16 21
-19 44 -6 44 5 0 11 -10 15 -22z m328 -3 c-6 -32 -12 -32 -12 0 0 14 4 25 9
25 4 0 6 -11 3 -25z m15 -37 c-3 -8 -6 -5 -6 6 -1 11 2 17 5 13 3 -3 4 -12 1
-19z m-349 -24 c-10 -10 -28 6 -28 24 0 15 1 15 17 -1 9 -9 14 -19 11 -23z
m277 17 c7 -12 -12 -24 -25 -16 -11 7 -4 25 10 25 5 0 11 -4 15 -9z m105 -11
c0 -5 -4 -10 -10 -10 -5 0 -10 5 -10 10 0 6 5 10 10 10 6 0 10 -4 10 -10z"/>
<path d="M465 909 c33 -5 67 -11 75 -14 9 -3 7 1 -4 10 -13 10 -40 15 -75 14
l-56 -1 60 -9z"/>
<path d="M856 911 c-4 -7 11 -8 43 -4 27 3 58 2 68 -3 12 -5 -7 -10 -60 -14
-55 -4 -82 -11 -95 -24 -16 -16 -16 -17 13 -10 27 7 29 6 16 -9 -7 -9 -11 -27
-7 -40 5 -20 11 -23 52 -21 49 2 69 19 58 48 -6 15 -7 15 -19 0 -7 -10 -17
-14 -24 -9 -9 5 -7 13 10 28 19 18 26 19 52 9 17 -6 32 -10 34 -9 1 2 -1 16
-6 33 -7 28 -10 29 -68 32 -34 2 -64 -2 -67 -7z"/>
<path d="M380 884 c-13 -34 -14 -34 20 -21 36 14 46 6 28 -22 -20 -32 -1 -53
50 -55 46 -3 68 17 56 49 -6 14 -8 14 -20 -2 -10 -14 -15 -15 -25 -6 -18 18
-6 25 40 27 36 1 39 2 26 16 -10 9 -41 16 -90 18 -41 2 -72 8 -69 13 3 5 3 9
-1 9 -3 0 -10 -12 -15 -26z"/>
<path d="M626 673 c-33 -39 -30 -51 15 -77 l34 -19 -19 21 c-17 20 -18 26 -6
62 7 22 11 42 9 43 -2 2 -17 -11 -33 -30z"/>
<path d="M597 513 c-3 -4 7 -8 21 -8 15 -1 56 -4 92 -8 44 -4 54 -3 31 2 -57
15 -139 23 -144 14z"/>
<path d="M650 460 c36 -12 70 -12 70 0 0 6 -21 10 -47 9 -39 -1 -43 -2 -23 -9z"/>
<path d="M950 221 c0 -5 9 -7 20 -4 11 3 20 7 20 9 0 2 -9 4 -20 4 -11 0 -20
-4 -20 -9z"/>
<path d="M773 189 c-26 -10 -29 -26 -10 -62 9 -17 18 -23 26 -18 7 5 12 10 11
12 -1 2 2 12 6 22 3 10 3 26 -2 36 -7 15 -14 17 -31 10z m17 -35 c0 -16 -16
-19 -25 -4 -8 13 4 32 16 25 5 -4 9 -13 9 -21z"/>
<path d="M1100 9 c0 -5 5 -7 10 -4 6 3 10 8 10 11 0 2 -4 4 -10 4 -5 0 -10 -5
-10 -11z"/>
</g>
</svg>
